<?xml version="1.0" standalone="no"?>
<!DOCTYPE svg PUBLIC "-//W3C//DTD SVG 20010904//EN"
 "http://www.w3.org/TR/2001/REC-SVG-20010904/DTD/svg10.dtd">
<svg version="1.0" xmlns="http://www.w3.org/2000/svg"
 width="143.000000pt" height="32.000000pt" viewBox="0 0 143.000000 32.000000"
 preserveAspectRatio="xMidYMid meet">

<g transform="translate(0.000000,32.000000) scale(0.100000,-0.100000)"
fill="#000000" stroke="none">
<path d="M1308 313 c-21 -5 -21 -5 -7 -37 l12 -25 29 24 c16 14 34 25 39 25 6
0 7 5 4 10 -6 10 -45 12 -77 3z"/>
<path d="M145 266 c-20 -9 -48 -40 -82 -92 -63 -98 -70 -119 -47 -145 15 -17
31 -19 148 -19 109 0 134 3 152 18 26 22 94 116 94 131 0 7 -29 11 -86 11 -71
0 -89 -3 -100 -17 -21 -28 -17 -33 29 -33 53 0 62 -8 40 -32 -13 -15 -32 -18
-105 -18 -107 0 -114 8 -67 77 49 73 48 73 190 73 100 0 129 3 139 15 10 12
10 18 0 30 -17 20 -260 21 -305 1z"/>
<path d="M516 255 c-9 -13 -16 -27 -16 -30 0 -3 29 -5 65 -5 36 0 65 -3 65 -6
0 -4 -27 -45 -61 -92 -79 -110 -79 -112 -36 -112 33 0 40 6 112 105 l76 105
58 0 c47 0 61 4 79 23 12 13 22 26 22 30 0 4 -78 7 -174 7 -174 0 -174 0 -190
-25z"/>
<path d="M937 260 c-33 -26 -87 -103 -87 -124 0 -14 18 -16 119 -16 66 0 122
-4 125 -8 2 -4 1 -14 -4 -22 -7 -12 -43 -16 -157 -20 l-148 -5 0 -25 0 -25
154 -3 154 -3 29 28 c28 27 88 113 88 126 0 4 -58 7 -130 7 -107 0 -130 3
-130 14 0 26 22 31 160 36 l135 5 0 25 0 25 -141 3 c-130 2 -143 1 -167 -18z"/>
</g>
</svg>
